<svg xmlns="http://www.w3.org/2000/svg" viewBox="0 0 64 64" role="img" aria-label="Student Card Maker favicon">
  <defs>
    <linearGradient id="bg" x1="8" y1="6" x2="56" y2="58" gradientUnits="userSpaceOnUse">
      <stop offset="0" stop-color="#0f766e"/>
      <stop offset="1" stop-color="#1d4ed8"/>
    </linearGradient>
  </defs>

  <rect x="4" y="4" width="56" height="56" rx="14" fill="url(#bg)"/>

  <rect x="14" y="12" width="36" height="40" rx="7" fill="#ffffff"/>
  <rect x="14" y="12" width="36" height="7" rx="7" fill="#0f172a"/>
  <rect x="14" y="16" width="36" height="3" fill="#0f172a"/>

  <circle cx="23.5" cy="28" r="4.5" fill="#93c5fd"/>
  <rect x="19" y="33" width="9" height="6" rx="3" fill="#bfdbfe"/>

  <rect x="31" y="25" width="15" height="2.7" rx="1.35" fill="#1d4ed8"/>
  <rect x="31" y="30" width="12" height="2.7" rx="1.35" fill="#2563eb"/>
  <rect x="31" y="35" width="14" height="2.7" rx="1.35" fill="#3b82f6"/>

  <rect x="18" y="43" width="2" height="5" rx="1" fill="#0f172a"/>
  <rect x="21" y="42" width="1.5" height="6" rx="0.75" fill="#0f172a"/>
  <rect x="24" y="43" width="2.2" height="5" rx="1.1" fill="#0f172a"/>
  <rect x="27.2" y="42" width="1.4" height="6" rx="0.7" fill="#0f172a"/>
  <rect x="30" y="43" width="2" height="5" rx="1" fill="#0f172a"/>
  <rect x="33" y="42" width="1.4" height="6" rx="0.7" fill="#0f172a"/>
  <rect x="35.8" y="43" width="2.2" height="5" rx="1.1" fill="#0f172a"/>
  <rect x="39" y="42" width="1.5" height="6" rx="0.75" fill="#0f172a"/>
  <rect x="42" y="43" width="2" height="5" rx="1" fill="#0f172a"/>
</svg>
